<?xml version="1.0" encoding="utf-8"?>
<!-- Generator: Adobe Illustrator 16.0.0, SVG Export Plug-In . SVG Version: 6.00 Build 0)  -->
<!DOCTYPE svg PUBLIC "-//W3C//DTD SVG 1.1//EN" "http://www.w3.org/Graphics/SVG/1.1/DTD/svg11.dtd">
<svg version="1.1" id="chollima" xmlns="http://www.w3.org/2000/svg" xmlns:xlink="http://www.w3.org/1999/xlink" x="0px" y="0px"
	 width="1159px" height="1159px" viewBox="0 0 1159 1159" enable-background="new 0 0 1159 1159" xml:space="preserve">
<path id="glass_1_" fill-rule="evenodd" clip-rule="evenodd" fill="#488FCC" d="M1083.23,421.52c0,0,29,130.83,49,164.83
	s43,83,6,127s-76,100-277,103s-462,54-565,0s-237-221-278-368s-8-198,184-191s515,48,643,96S1083.23,421.52,1083.23,421.52z"/>
<g id="head">
	<path id="face" fill-rule="evenodd" clip-rule="evenodd" fill="#BDDDF4" d="M1070.77,701.65c-1.46,4.01-2.79,8.06-4.4,12.01
		c-3.79,9.28-5.71,9.52-13.2,3.06c-8.95-7.71-17.9-15.48-27.45-22.41c-14.6-10.61-30.28-19.51-48.27-22.91
		c-6.23-1.18-13.08-1.53-19.23-0.26c-19.59,4.04-26.21,24.87-13.24,40.23c7.98,9.45,18.8,14.04,30.31,17.23
		c5.43,1.5,11.05,2.27,16.57,3.46c5.43,1.17,5.73,2.94,2.73,7.43c-6.14,9.19-14.6,8.83-23.93,7.15c-8.01-1.44-16.15-2.13-24.24-3.09
		c-4.42-0.52-8.13-2.22-9.98-6.45c-10.28-23.47-28.89-38.62-50.6-50.57c-9.89-5.45-19.91-10.75-30.26-15.24
		c-3.56-1.54-8.86-1.8-12.36-0.3c-20.46,8.75-41.84,13.04-63.88,14.31c-13.23,0.76-25.83-2.44-37.58-8.33
		c-9.94-4.98-19.58-10.6-29.18-16.23c-5.16-3.03-10.01-3.47-15.61-1.13c-22.77,9.54-44.92,20.13-64.33,35.71
		c-29.29,23.51-47.69,54.15-58.82,89.57c-1.43,4.56-2.76,9.16-4.58,15.23c-1.67-2.69-2.77-4.14-3.54-5.75
		c-9.06-18.86-17.86-37.85-27.22-56.57c-2.64-5.28-6.61-9.97-10.43-14.55c-3.2-3.85-3.63-7-0.98-11.58
		c21.2-36.5,51.99-60.89,92-73.92c2.18-0.71,4.28-1.63,6.42-2.45c-0.05-0.5-0.11-1-0.16-1.49c-6.45,0.42-12.95,0.52-19.36,1.32
		c-41.61,5.22-77.54,22.58-108.14,51.13c-3.12,2.91-6.48,3.44-9.95,1.03c-24.82-17.17-52.62-28.26-80.3-39.62
		c-1.08-0.44-2.18-0.83-3.23-1.31c-4.69-2.12-5.37-4.78-1.38-8.2c10.36-8.87,20.49-18.13,31.61-25.97
		c36.33-25.63,76.98-41,120.65-48.42c36.25-6.16,72.55-6.1,108.78,0.64c6.08,1.13,9.63,4.5,11.85,10.07
		c6.84,17.14,13.91,34.17,24.26,49.62c15.15,22.62,36.92,34.84,62.93,40.53c28.6,6.26,55.47-0.33,81.45-11.71
		c7.96-3.49,15.47-4.95,23.48-1.71c11.84,4.78,23.57,9.87,35.35,14.8c1.61,0.68,3.27,1.26,4.9,1.89c0.27-0.37,0.53-0.74,0.8-1.11
		c-1.38-1.41-2.55-3.19-4.19-4.18c-16.47-9.98-32.98-19.9-49.57-29.67c-3.82-2.25-7.85-1.12-11.37,1.07
		c-17.16,10.64-36.33,15.3-56,15.94c-17.81,0.57-33.63-7.24-47.52-18.22c-17.53-13.87-25.64-33.08-29.58-54.41
		c-1.18-6.37-1.62-12.88-2.93-19.22c-0.44-2.11-2.1-4.74-3.94-5.66c-40.85-20.57-82.18-39.96-127.33-49.46
		c-2.76-0.58-5.56-1.1-8.37-1.29c-4.34-0.3-5.45,1.36-3.13,5.01c4.19,6.6,8.84,12.91,13.02,19.51c1.51,2.39,2.25,5.26,3.34,7.92
		c-2.93,0.81-5.83,2.2-8.78,2.34c-51.71,2.43-102.58,9.66-151.9,26.05c-38.72,12.87-74.97,30.83-109.14,53
		c-6.24,4.05-12.23,4.97-19.34,3.17c-34.78-8.79-69.58-17.49-102.56-32.03c-5.32-2.35-10.6-4.79-15.83-7.33
		c-6.18-3-6.31-4.97-0.7-8.74c34.29-23.03,69.91-43.74,107.05-61.82c54.42-26.5,110.98-46.97,170.24-59.61
		c50.66-10.8,101.84-16.06,153.72-13.79c40.22,1.76,79.64,8.29,118.47,18.74c2.21,0.6,4.68,0.25,7.03,0.34
		c-0.92-2.33-1.23-5.32-2.88-6.85c-4.73-4.36-9.98-8.17-15.09-12.1c-1.63-1.25-3.47-2.22-5.21-3.32c0.14-0.55,0.28-1.1,0.42-1.65
		c5.48,0.38,11.02,0.4,16.43,1.22c26.71,4.01,51.71,12.55,72.95,29.75c5.85,4.74,10.65,10.92,15.33,16.91
		c3.28,4.2,6.77,7.38,11.84,9.39c24.39,9.63,48.71,19.43,72.93,29.48c7.27,3.02,7.27,4.21,2.47,10.32
		c-2.17,2.76-1.55,4.95,1.36,6.53c4.52,2.47,9.33,4.47,13.64,7.25c28.64,18.49,57.18,37.14,85.76,55.73
		c17.15,11.16,34.28,22.35,51.48,33.42c6.26,4.03,7.07,6.1,5.73,13.62c-1.05,5.87-1.88,11.83-2.11,17.77
		c-0.34,8.88,3.29,16.45,8.92,23.2c2.53,3.04,4.73,6.35,7.08,9.53C1070.77,696.98,1070.77,699.32,1070.77,701.65z M976.98,608.1
		c-13.84-19.92-146.6-98.37-164.23-98.06c0.76,1.09,1.23,2.16,2.03,2.87c15.58,13.8,31.17,27.58,46.83,41.28
		c2.84,2.49,6.2,3.37,9.61,1.02c4.88-3.37,9.34-2.78,14.33,0.21c21.24,12.73,42.6,25.27,64.02,37.7
		C958.58,598.35,967.84,603.12,976.98,608.1z M749.56,461.4c0.02,0.3,0.04,0.61,0.06,0.91c15.35,5.43,30.7,10.85,46.09,16.29
		c-3.78-9.88-26.69-29.22-39.75-28.3c2.72,2.29,4.76,3.74,6.44,5.52c0.92,0.97,1.22,2.51,1.8,3.8c-1.44,0.59-2.86,1.58-4.34,1.69
		C756.45,461.57,753,461.4,749.56,461.4z M1041.18,669.49c0.35-0.36,0.7-0.72,1.05-1.08c-3.24-5.19-6.73-10.25-9.65-15.62
		c-3.93-7.22-3.63-7.82,2.13-13.72c0.85-0.87,2.03-2.62,1.71-3.18c-0.61-1.07-2.14-2.05-3.41-2.23c-3.78-0.52-7.62-0.98-11.42-0.83
		c-6.17,0.24-8.68,4.13-6.26,9.89c1.46,3.47,3.25,7.17,5.91,9.71C1027.56,658.45,1034.5,663.84,1041.18,669.49z"/>
	<path id="mane1" fill-rule="evenodd" clip-rule="evenodd" fill="#BDDDF4" d="M256.98,325.93c4.47,3.01,8.13,5.54,11.86,7.97
		c13.03,8.47,27.14,14.01,42.7,15.39c14.55,1.29,28-2.75,40.81-9.21c16.32-8.22,32.23-17.35,48.89-24.8
		c30.8-13.76,63.52-18.59,96.96-16.35c29.55,1.98,56.51,13.02,81.8,28.02c36.56,21.69,66.71,50.07,89.05,86.45
		c0.7,1.13,1.39,2.27,2.02,3.44c2.44,4.58,1.55,6.27-3.57,5.92c-10.79-0.74-21.58-1.59-32.33-2.7c-27.34-2.83-54.68-5.62-82.21-4.12
		c-6.23,0.34-10.34-1.75-13.68-6.97c-12.6-19.71-29.13-34.84-51.25-43.46c-15.01-5.85-30.33-4.73-45.23-1.16
		c-30.48,7.31-60.68,15.78-91,23.75c-11.89,3.13-23.73,6.45-36.27,5.78c-17.38-0.94-31.64-8.14-40.06-23.24
		c-7.38-13.25-12.5-27.76-18.57-41.73C256.65,328.39,256.91,327.64,256.98,325.93z"/>
	<path id="mane2" fill-rule="evenodd" clip-rule="evenodd" fill="#BDDDF4" d="M183.91,325.74c1.75,9.63,2.88,18.15,4.93,26.45
		c2.22,9,4.71,18.01,8.11,26.61c9.55,24.15,28.31,36.02,53.45,40.01c28.22,4.48,55.28-1.08,82.34-7.63
		c24.36-5.89,48.58-12.36,73.03-17.87c24.39-5.49,48.36-3.52,71.04,7.5c5.71,2.77,10.73,7.16,15.62,11.33
		c1.74,1.49,3.59,5.33,2.84,6.68c-1.07,1.92-4.38,3.15-6.92,3.6c-15.53,2.77-31.21,4.74-46.66,7.89
		c-38.98,7.95-76.49,20.9-113.75,34.59c-9.97,3.67-20.22,6.78-29.75,11.36c-13.19,6.35-26.34,6.05-39.79,2.11
		c-44.06-12.9-72.14-40.92-81.29-86.59C173.72,374.85,177.25,339.24,183.91,325.74z"/>
	<path id="mane3" fill-rule="evenodd" clip-rule="evenodd" fill="#BDDDF4" d="M160.15,533.94c-9.61-1.64-19.5-2.37-28.79-5.11
		c-20.78-6.12-31.86-22.35-39.97-41.12c-0.4-0.92-0.45-2.85,0.01-3.11c0.96-0.55,2.46-0.59,3.6-0.31
		c8.21,2.03,16.28,4.85,24.59,6.17c11.4,1.81,22.5-0.31,33.06-5.15c5.88-2.7,11.83-5.3,17.88-7.6c16.07-6.1,31.95-5.81,47.24,2.46
		c9.94,5.38,19.69,11.11,29.42,16.86c3.89,2.3,3.97,4.72,0.3,7.28c-20.9,14.57-43.52,24.89-69.21,27.38
		c-5.96,0.58-11.94,0.95-17.91,1.42C160.3,533.38,160.23,533.66,160.15,533.94z"/>
	<path id="eye_2_" display="none" fill-rule="evenodd" clip-rule="evenodd" fill="#FFFFFF" d="M976.98,608.1
		c-9.14-4.98-18.4-9.75-27.4-14.98c-21.42-12.43-42.78-24.97-64.02-37.7c-5-3-9.45-3.58-14.33-0.21c-3.41,2.35-6.77,1.46-9.61-1.02
		c-15.66-13.7-31.25-27.49-46.83-41.28c-0.8-0.71-1.27-1.78-2.03-2.87C830.38,509.74,963.15,588.18,976.98,608.1z"/>
	<path id="ear_2_" display="none" fill-rule="evenodd" clip-rule="evenodd" fill="#FFFFFF" d="M749.56,461.4
		c3.44,0,6.88,0.17,10.3-0.08c1.48-0.11,2.89-1.1,4.34-1.69c-0.58-1.29-0.89-2.83-1.8-3.8c-1.68-1.78-3.71-3.23-6.44-5.52
		c13.07-0.92,35.97,18.42,39.75,28.3c-15.38-5.44-30.74-10.87-46.09-16.29C749.6,462,749.58,461.7,749.56,461.4z"/>
	<path id="nostril_2_" display="none" fill-rule="evenodd" clip-rule="evenodd" fill="#FFFFFF" d="M1041.18,669.49
		c-6.69-5.65-13.62-11.05-19.95-17.08c-2.66-2.53-4.45-6.23-5.91-9.71c-2.42-5.76,0.09-9.65,6.26-9.89
		c3.79-0.15,7.64,0.31,11.42,0.83c1.27,0.18,2.8,1.16,3.41,2.23c0.32,0.57-0.85,2.31-1.71,3.18c-5.76,5.91-6.06,6.5-2.13,13.72
		c2.92,5.37,6.41,10.42,9.65,15.62C1041.88,668.77,1041.53,669.13,1041.18,669.49z"/>
</g>
</svg>
