<?xml version="1.0" encoding="utf-8"?>
<!-- Generator: Adobe Illustrator 16.0.0, SVG Export Plug-In . SVG Version: 6.00 Build 0)  -->
<!DOCTYPE svg PUBLIC "-//W3C//DTD SVG 1.1//EN" "http://www.w3.org/Graphics/SVG/1.1/DTD/svg11.dtd" [
	<!ENTITY ns_extend "http://ns.adobe.com/Extensibility/1.0/">
	<!ENTITY ns_ai "http://ns.adobe.com/AdobeIllustrator/10.0/">
	<!ENTITY ns_graphs "http://ns.adobe.com/Graphs/1.0/">
	<!ENTITY ns_vars "http://ns.adobe.com/Variables/1.0/">
	<!ENTITY ns_imrep "http://ns.adobe.com/ImageReplacement/1.0/">
	<!ENTITY ns_sfw "http://ns.adobe.com/SaveForWeb/1.0/">
	<!ENTITY ns_custom "http://ns.adobe.com/GenericCustomNamespace/1.0/">
	<!ENTITY ns_adobe_xpath "http://ns.adobe.com/XPath/1.0/">
]>
<svg version="1.1" id="Layer_1" xmlns:x="&ns_extend;" xmlns:i="&ns_ai;" xmlns:graph="&ns_graphs;"
	 xmlns="http://www.w3.org/2000/svg" xmlns:xlink="http://www.w3.org/1999/xlink" x="0px" y="0px" width="936px" height="196px"
	 viewBox="0 0 936 196" enable-background="new 0 0 936 196" xml:space="preserve">
<metadata>
	<sfw  xmlns="&ns_sfw;">
		<slices></slices>
		<sliceSourceBounds  width="925.23" height="185.47" y="-667.86" x="139.47" bottomLeftOrigin="true"></sliceSourceBounds>
		<optimizationSettings>
			<targetSettings  fileFormat="PNG24Format" targetSettingsID="0">
				<PNG24Format  transparency="true" interlaced="false" noMatteColor="false" matteColor="#FFFFFF" filtered="false">
					</PNG24Format>
			</targetSettings>
		</optimizationSettings>
	</sfw>
</metadata>
<g>
	<path id="A" fill="#302C2A" stroke="#302C2A" stroke-width="9" stroke-miterlimit="10" d="M913.27,151.57
		c0.44,0.73,1.1,1.29,1.98,1.65c0.88,0.37,1.76,0.55,2.64,0.55c1.61,0,3.08-0.22,4.4-0.66l2.2-0.88l1.54,24.86
		c-1.91,1.18-4.11,2.2-6.6,3.08c-2.5,0.88-5.21,1.32-8.14,1.32c-6.16,0-10.97-0.37-14.41-1.1c-3.45-0.73-6.35-1.83-8.69-3.3
		c-3.08,1.03-5.94,1.91-8.58,2.64c-2.64,0.73-5.28,1.32-7.92,1.76c-2.64,0.44-5.5,0.77-8.58,0.99c-3.08,0.22-6.6,0.33-10.56,0.33
		c-4.7,0-9.72-0.52-15.07-1.54c-5.36-1.02-10.27-3.08-14.74-6.16c-4.48-3.08-8.22-7.48-11.22-13.2c-3.01-5.72-4.51-13.27-4.51-22.66
		c0-8.06,1.68-14.63,5.06-19.69c3.37-5.06,7.63-8.98,12.76-11.77c5.13-2.78,10.81-4.65,17.05-5.61c6.23-0.95,12.13-1.43,17.71-1.43
		c4.98,0,9.38,0.22,13.2,0.66c0-2.34-0.19-4.4-0.55-6.16c-0.37-1.76-1.1-3.15-2.2-4.18c-1.1-1.02-2.72-1.79-4.84-2.31
		c-2.13-0.51-4.95-0.77-8.47-0.77c-3.67,0-7.56,0.22-11.66,0.66c-4.11,0.44-7.85,0.96-11.22,1.54l-12.1,1.98l-7.7-25.96
		c4.25-2.2,10.7-4.54,19.36-7.04c8.65-2.49,20.16-3.74,34.54-3.74c7.04,0,13.01,0.99,17.93,2.97c4.91,1.98,8.98,4.51,12.21,7.59
		c3.22,3.08,5.72,6.49,7.48,10.23c1.76,3.74,3.08,7.45,3.96,11.11c0.88,3.67,1.43,7.04,1.65,10.12s0.33,5.5,0.33,7.26v13.86
		c0,3.08,0,6.42,0,10.01c0,3.6,0.07,7.01,0.22,10.23c0.14,3.23,0.33,6.02,0.55,8.36C912.5,149.52,912.83,150.99,913.27,151.57z
		 M873.89,125.83c-1.62-0.14-3.3-0.33-5.06-0.55c-1.76-0.22-3.6-0.33-5.5-0.33c-2.06,0-4.15,0.19-6.27,0.55
		c-2.13,0.37-4.07,1.1-5.83,2.2c-1.76,1.1-3.19,2.61-4.29,4.51c-1.1,1.91-1.65,4.4-1.65,7.48c0,2.5,0.51,4.55,1.54,6.16
		c1.02,1.62,2.34,2.9,3.96,3.85c1.61,0.96,3.41,1.62,5.39,1.98c1.98,0.37,3.92,0.55,5.83,0.55c2.05,0,4.14-0.22,6.27-0.66
		c2.13-0.44,4-0.66,5.61-0.66V125.83z"/>
	<path id="M" fill="#302C2A" stroke="#302C2A" stroke-width="9" stroke-miterlimit="10" d="M746.3,119.23
		c0-7.48-0.19-13.31-0.55-17.49c-0.37-4.18-1.07-7.33-2.09-9.46c-1.03-2.12-2.35-3.48-3.96-4.07c-1.62-0.58-3.74-0.88-6.38-0.88
		c-1.62,0.15-3.38,0.44-5.28,0.88c-1.91,0.44-3.45,0.88-4.62,1.32l-4.4,1.98v88.88h-37.84v-83.6c0-2.93-1.14-5.24-3.41-6.93
		c-2.28-1.68-4.88-2.53-7.81-2.53c-1.62,0-3.23,0.22-4.84,0.66c-1.62,0.44-3.08,0.96-4.4,1.54l-4.4,1.98v88.88H616.5V98.55
		c0-1.17-0.04-2.45-0.11-3.85c-0.08-1.39-0.41-2.67-0.99-3.85c-0.59-1.17-1.43-2.16-2.53-2.97c-1.1-0.8-2.68-1.21-4.73-1.21
		c-1.47,0-2.46,0.11-2.97,0.33c-0.52,0.22-0.92,0.33-1.21,0.33l-1.54-23.54c1.9-1.17,4.1-2.2,6.6-3.08c2.49-0.88,5.42-1.32,8.8-1.32
		c5.57,0,10.19,0.41,13.86,1.21c3.66,0.81,6.74,2.17,9.24,4.07c4.69-2.49,10.01-4.43,15.95-5.83c5.94-1.39,12.21-2.09,18.81-2.09
		c4.54,0,9.27,0.59,14.19,1.76c4.91,1.18,9.64,3.23,14.19,6.16c4.54-2.49,9.9-4.43,16.06-5.83c6.16-1.39,12.46-2.09,18.92-2.09
		c6.74,0,12.54,0.92,17.38,2.75c4.84,1.84,8.91,4.22,12.21,7.15c3.3,2.94,5.94,6.2,7.92,9.79c1.98,3.6,3.52,7.15,4.62,10.67
		c1.1,3.52,1.83,6.79,2.2,9.79c0.36,3.01,0.55,5.39,0.55,7.15v21.56c0,3.08,0,6.09,0,9.02c0,2.94,0.07,5.57,0.22,7.92
		c0.14,2.35,0.33,4.37,0.55,6.05c0.22,1.69,0.55,2.83,0.99,3.41c0.44,0.74,1.1,1.29,1.98,1.65c0.88,0.37,1.76,0.55,2.64,0.55
		c1.61,0,3.08-0.22,4.4-0.66l2.2-0.88l1.54,24.86c-1.91,1.18-4.51,2.2-7.81,3.08c-3.3,0.88-6.42,1.32-9.35,1.32
		c-6.6,0-12.14-0.33-16.61-0.99c-4.48-0.66-8.07-2.16-10.78-4.51c-2.72-2.34-4.66-5.79-5.83-10.34c-1.18-4.54-1.76-10.63-1.76-18.26
		V119.23z"/>
	<path id="I" fill="#302C2A" stroke="#302C2A" stroke-width="9" stroke-miterlimit="10" d="M585.04,59.17v121.22h-39.82V88.43h-9.68
		V59.17H585.04z M537.3,29.69c0-7.18,2.31-12.28,6.93-15.29c4.62-3,10.23-4.51,16.83-4.51c3.22,0,6.3,0.3,9.24,0.88
		c2.93,0.59,5.46,1.65,7.59,3.19c2.12,1.54,3.81,3.6,5.06,6.16c1.24,2.57,1.87,5.76,1.87,9.57c0,3.82-0.63,7.01-1.87,9.57
		c-1.25,2.57-2.94,4.62-5.06,6.16c-2.13,1.54-4.66,2.64-7.59,3.3c-2.94,0.66-6.02,0.99-9.24,0.99c-3.38,0-6.49-0.29-9.35-0.88
		c-2.86-0.58-5.36-1.61-7.48-3.08c-2.13-1.46-3.82-3.52-5.06-6.16C537.92,36.95,537.3,33.65,537.3,29.69z"/>
	<path id="L2" fill="#302C2A" stroke="#302C2A" stroke-width="9" stroke-miterlimit="10" d="M399.58,40.25V10.99h49.5v141.9
		c0,7.92,0.4,13.75,1.21,17.49c0.8,3.74,1.79,6.27,2.97,7.59l-25.08,8.14c-2.06-0.73-4.18-1.91-6.38-3.52
		c-2.2-1.62-4.22-3.88-6.05-6.82c-1.83-2.93-3.38-6.63-4.62-11.11c-1.25-4.47-1.87-9.94-1.87-16.39V40.25H399.58z"/>
	<path id="L1" fill="#302C2A" stroke="#302C2A" stroke-width="9" stroke-miterlimit="10" d="M465.36,40.25V10.99h49.5v141.9
		c0,7.92,0.4,13.75,1.21,17.49c0.8,3.74,1.79,6.27,2.97,7.59l-25.08,8.14c-2.06-0.73-4.18-1.91-6.38-3.52
		c-2.2-1.62-4.22-3.88-6.05-6.82c-1.83-2.93-3.38-6.63-4.62-11.11c-1.25-4.47-1.87-9.94-1.87-16.39V40.25H465.36z"/>
	<path id="O" fill="#302C2A" stroke="#302C2A" stroke-width="9" stroke-miterlimit="10" d="M280.78,107.35
		c0-11.29,1.83-20.27,5.5-26.95c3.66-6.67,8.25-11.73,13.75-15.18c5.5-3.44,11.47-5.68,17.93-6.71c6.45-1.02,12.54-1.54,18.26-1.54
		c5.42,0,11.4,0.52,17.93,1.54c6.52,1.03,12.54,3.27,18.04,6.71c5.5,3.45,10.12,8.51,13.86,15.18c3.74,6.68,5.61,15.66,5.61,26.95
		v28.16c0,10.86-1.65,19.4-4.95,25.63c-3.3,6.23-7.59,10.89-12.87,13.97c-5.28,3.08-11.22,5.03-17.82,5.83
		c-6.6,0.8-13.2,1.21-19.8,1.21c-6.46,0-12.98-0.37-19.58-1.1c-6.6-0.73-12.54-2.6-17.82-5.61c-5.28-3-9.61-7.62-12.98-13.86
		c-3.38-6.23-5.06-14.85-5.06-25.85V107.35z M320.6,127.89c0,5.99,0.44,10.67,1.31,14.04s2.04,5.92,3.5,7.68
		c1.46,1.75,3.09,2.85,4.92,3.29c1.82,0.44,3.75,0.66,5.79,0.66c2.18,0,4.26-0.22,6.23-0.66c1.97-0.44,3.67-1.5,5.13-3.18
		c1.46-1.68,2.62-4.24,3.5-7.68c0.87-3.43,1.31-8.15,1.31-14.14v-15.13c0-5.85-0.55-10.53-1.64-14.04c-1.09-3.51-2.44-6.17-4.04-8
		c-1.6-1.83-3.35-3.04-5.24-3.62c-1.89-0.58-3.57-0.88-5.03-0.88c-1.6,0-3.31,0.29-5.14,0.88c-1.82,0.58-3.5,1.79-5.03,3.62
		c-1.53,1.83-2.84,4.53-3.93,8.11s-1.64,8.3-1.64,14.15V127.89z"/>
	<path id="H" fill="#302C2A" stroke="#302C2A" stroke-width="9" stroke-miterlimit="10" d="M219.62,125.17
		c0-8.06-0.22-14.59-0.66-19.58c-0.44-4.98-1.29-8.8-2.53-11.44c-1.25-2.64-2.9-4.43-4.95-5.39c-2.06-0.95-4.7-1.43-7.92-1.43
		c-1.62,0-3.23,0.22-4.84,0.66c-1.62,0.44-3.08,0.96-4.4,1.54l-4.4,1.98v88.88H150.1V40.25h-9.68V10.99h49.5v47.74
		c2.93-0.73,5.97-1.24,9.13-1.54c3.15-0.29,6.63-0.44,10.45-0.44c10.7,0,19.21,1.98,25.52,5.94c6.3,3.96,11.11,8.58,14.41,13.86
		c3.3,5.28,5.42,10.53,6.38,15.73c0.95,5.21,1.43,9.13,1.43,11.77v13.86c0,3.08,0,6.42,0,10.01c0,3.6,0.07,7.01,0.22,10.23
		c0.14,3.23,0.33,6.02,0.55,8.36c0.22,2.35,0.55,3.82,0.99,4.4c0.44,0.74,1.1,1.29,1.98,1.65c0.88,0.37,1.76,0.55,2.64,0.55
		c1.61,0,3.08-0.22,4.4-0.66l2.2-0.88l1.54,24.86c-1.91,1.18-4.11,2.2-6.6,3.08c-2.5,0.88-5.21,1.32-8.14,1.32
		c-6.6,0-12.29-0.33-17.05-0.99c-4.77-0.66-8.66-2.16-11.66-4.51c-3.01-2.34-5.21-5.79-6.6-10.34c-1.4-4.54-2.09-10.63-2.09-18.26
		V125.17z"/>
	<path id="C" fill="#302C2A" stroke="#302C2A" stroke-width="9" stroke-miterlimit="10" d="M99.95,69.07l-1.1-8.36
		c-1.62-2.2-4-4.21-7.15-6.05c-3.16-1.83-7.89-2.75-14.19-2.75c-4.7,0-8.55,0.88-11.55,2.64c-3.01,1.76-5.36,4.4-7.04,7.92
		c-1.69,3.52-2.86,7.96-3.52,13.31c-0.66,5.36-0.99,11.63-0.99,18.81v16.72c0,7.78,0.36,14.3,1.1,19.58
		c0.73,5.28,2.05,9.54,3.96,12.76c1.9,3.23,4.47,5.54,7.7,6.93c3.22,1.39,7.41,2.09,12.54,2.09c4.98,0,9.2-0.18,12.65-0.55
		c3.44-0.36,6.63-0.88,9.57-1.54c2.93-0.66,5.75-1.46,8.47-2.42c2.71-0.95,5.83-2.01,9.35-3.19l10.12,24.42
		c-7.92,3.67-15.99,6.82-24.2,9.46c-8.21,2.64-16.94,3.96-26.18,3.96c-8.8,0-17.38-0.66-25.74-1.98c-8.36-1.32-15.81-4.25-22.33-8.8
		c-6.53-4.54-11.74-11.07-15.62-19.58c-3.89-8.5-5.83-20.02-5.83-34.54V82.27c0-9.09,0.99-16.9,2.97-23.43
		c1.98-6.52,4.65-12.02,8.03-16.5c3.37-4.47,7.26-8.06,11.66-10.78c4.4-2.71,9.05-4.76,13.97-6.16c4.91-1.39,9.82-2.31,14.74-2.75
		c4.91-0.44,9.64-0.66,14.19-0.66c9.68,0,19.1,0.63,28.27,1.87c9.16,1.25,16.97,2.9,23.43,4.95l-2.86,40.26H99.95z"/>
</g>
</svg>
